<svg width="15" height="20" viewBox="0 0 15 20" fill="none" xmlns="http://www.w3.org/2000/svg">
<path d="M2.1875 0H12.8125C14.02 0 15 0.98 15 2.1875V17.8125C15 18.3927 14.7695 18.9491 14.3593 19.3593C13.9491 19.7695 13.3927 20 12.8125 20H2.1875C1.60734 20 1.05094 19.7695 0.640704 19.3593C0.230468 18.9491 0 18.3927 0 17.8125V2.1875C0 0.98 0.98 0 2.1875 0ZM1.875 2.1875V17.8125C1.875 17.985 2.015 18.125 2.1875 18.125H12.8125C12.8954 18.125 12.9749 18.0921 13.0335 18.0335C13.0921 17.9749 13.125 17.8954 13.125 17.8125V2.1875C13.125 2.10462 13.0921 2.02513 13.0335 1.96653C12.9749 1.90792 12.8954 1.875 12.8125 1.875H2.1875C2.10462 1.875 2.02513 1.90792 1.96653 1.96653C1.90792 2.02513 1.875 2.10462 1.875 2.1875ZM7.5 16.25C7.16848 16.25 6.85054 16.1183 6.61612 15.8839C6.3817 15.6495 6.25 15.3315 6.25 15C6.25 14.6685 6.3817 14.3505 6.61612 14.1161C6.85054 13.8817 7.16848 13.75 7.5 13.75C7.83152 13.75 8.14946 13.8817 8.38388 14.1161C8.6183 14.3505 8.75 14.6685 8.75 15C8.75 15.3315 8.6183 15.6495 8.38388 15.8839C8.14946 16.1183 7.83152 16.25 7.5 16.25Z" fill="#2C2A2E"/>
</svg>
